<svg width="22" height="18" viewBox="0 0 22 18" fill="none" xmlns="http://www.w3.org/2000/svg">
<path d="M14.7852 10.0568L13.6674 9.03484C14.1078 7.93548 13.8791 7.02194 12.9815 6.29419C12.0839 5.56645 11.1101 5.38065 10.06 5.73677L8.94226 4.71484C9.23018 4.54452 9.55196 4.42065 9.90762 4.34323C10.2633 4.26581 10.6274 4.2271 11 4.2271C12.2025 4.2271 13.2229 4.61032 14.0612 5.37677C14.8995 6.14323 15.3187 7.07613 15.3187 8.17548C15.3187 8.51613 15.2721 8.8529 15.179 9.18581C15.0858 9.51871 14.9546 9.80903 14.7852 10.0568V10.0568ZM18.0624 13.0529L17.0462 12.1239C17.8761 11.5665 18.6001 10.9432 19.2182 10.2542C19.8364 9.56516 20.2895 8.87226 20.5774 8.17548C19.7306 6.45677 18.4604 5.09806 16.7667 4.09936C15.0731 3.10065 13.2356 2.60129 11.254 2.60129C10.5427 2.60129 9.81447 2.66323 9.06928 2.7871C8.3241 2.91097 7.7398 3.05806 7.3164 3.22839L6.14781 2.13677C6.74057 1.88903 7.49846 1.67226 8.42148 1.48645C9.34449 1.30065 10.2463 1.20774 11.127 1.20774C13.4134 1.20774 15.5219 1.78065 17.4527 2.92645C19.3834 4.07226 20.8568 5.6129 21.873 7.54839C21.9238 7.62581 21.9577 7.71871 21.9746 7.8271C21.9915 7.93548 22 8.05161 22 8.17548C22 8.29936 21.9915 8.41935 21.9746 8.53548C21.9577 8.65161 21.9238 8.74839 21.873 8.82581C21.4326 9.67742 20.8907 10.4594 20.2471 11.1716C19.6035 11.8839 18.8753 12.511 18.0624 13.0529V13.0529ZM18.9769 17.791L15.2679 14.4697C14.6751 14.6865 14.0062 14.8529 13.261 14.969C12.5158 15.0852 11.7621 15.1432 11 15.1432C8.66282 15.1432 6.5204 14.5703 4.57275 13.4245C2.6251 12.2787 1.14319 10.7381 0.127021 8.80258C0.0762125 8.70968 0.0423404 8.6129 0.0254043 8.51226C0.00846815 8.41161 0 8.29936 0 8.17548C0 8.05161 0.0127021 7.93161 0.0381063 7.81548C0.0635104 7.69936 0.0931486 7.60258 0.127021 7.52516C0.482679 6.82839 0.93572 6.15097 1.48614 5.4929C2.03657 4.83484 2.68437 4.21161 3.42956 3.62323L0.762125 1.18452C0.6097 1.04516 0.533487 0.882581 0.533487 0.696774C0.533487 0.510968 0.6097 0.348387 0.762125 0.209032C0.91455 0.0696773 1.09661 0 1.30831 0C1.52002 0 1.70208 0.0696773 1.8545 0.209032L20.0439 16.8387C20.1794 16.9626 20.2471 17.1135 20.2471 17.2916C20.2471 17.4697 20.1794 17.6284 20.0439 17.7677C19.9084 17.9226 19.7348 18 19.5231 18C19.3114 18 19.1293 17.9303 18.9769 17.791V17.791ZM4.47113 4.59871C3.8445 5.01677 3.23903 5.56645 2.65473 6.24774C2.07044 6.92903 1.65127 7.57161 1.39723 8.17548C2.26097 9.89419 3.56082 11.2529 5.29677 12.2516C7.03272 13.2503 9.00154 13.7497 11.2032 13.7497C11.7621 13.7497 12.3125 13.7187 12.8545 13.6568C13.3965 13.5948 13.8029 13.5019 14.0739 13.3781L12.448 11.8916C12.2617 11.969 12.0331 12.0271 11.7621 12.0658C11.4911 12.1045 11.2371 12.1239 11 12.1239C9.81447 12.1239 8.79831 11.7445 7.9515 10.9858C7.1047 10.2271 6.68129 9.29032 6.68129 8.17548C6.68129 7.94323 6.70246 7.71097 6.7448 7.47871C6.78714 7.24645 6.85065 7.03742 6.93533 6.85161L4.47113 4.59871Z" fill="#141414"/>
</svg>

