<svg width="22" height="15" viewBox="0 0 22 15" fill="none" xmlns="http://www.w3.org/2000/svg">
<path d="M11 11.75C12.2025 11.75 13.2229 11.3375 14.0612 10.5125C14.8995 9.6875 15.3187 8.68333 15.3187 7.5C15.3187 6.31667 14.8995 5.3125 14.0612 4.4875C13.2229 3.6625 12.2025 3.25 11 3.25C9.79754 3.25 8.77714 3.6625 7.9388 4.4875C7.10046 5.3125 6.68129 6.31667 6.68129 7.5C6.68129 8.68333 7.10046 9.6875 7.9388 10.5125C8.77714 11.3375 9.79754 11.75 11 11.75ZM11 10.3C10.204 10.3 9.53079 10.0292 8.98037 9.4875C8.42994 8.94583 8.15473 8.28333 8.15473 7.5C8.15473 6.71667 8.42994 6.05417 8.98037 5.5125C9.53079 4.97083 10.204 4.7 11 4.7C11.796 4.7 12.4692 4.97083 13.0196 5.5125C13.5701 6.05417 13.8453 6.71667 13.8453 7.5C13.8453 8.28333 13.5701 8.94583 13.0196 9.4875C12.4692 10.0292 11.796 10.3 11 10.3ZM11 15C8.66282 15 6.5331 14.375 4.61085 13.125C2.68861 11.875 1.20246 10.225 0.152425 8.175C0.101617 8.09167 0.0635104 7.99167 0.0381063 7.875C0.0127021 7.75833 0 7.63333 0 7.5C0 7.36667 0.0127021 7.24167 0.0381063 7.125C0.0635104 7.00833 0.101617 6.90833 0.152425 6.825C1.20246 4.775 2.68861 3.125 4.61085 1.875C6.5331 0.625 8.66282 0 11 0C13.3372 0 15.4669 0.625 17.3891 1.875C19.3114 3.125 20.7975 4.775 21.8476 6.825C21.8984 6.90833 21.9365 7.00833 21.9619 7.125C21.9873 7.24167 22 7.36667 22 7.5C22 7.63333 21.9873 7.75833 21.9619 7.875C21.9365 7.99167 21.8984 8.09167 21.8476 8.175C20.7975 10.225 19.3114 11.875 17.3891 13.125C15.4669 14.375 13.3372 15 11 15ZM11 13.5C13.0493 13.5 14.9334 12.9542 16.6524 11.8625C18.3714 10.7708 19.6798 9.31667 20.5774 7.5C19.6798 5.68333 18.3714 4.22917 16.6524 3.1375C14.9334 2.04583 13.0493 1.5 11 1.5C8.95073 1.5 7.06659 2.04583 5.34757 3.1375C3.62856 4.22917 2.31178 5.68333 1.39723 7.5C2.31178 9.31667 3.62856 10.7708 5.34757 11.8625C7.06659 12.9542 8.95073 13.5 11 13.5Z" fill="#141414"/>
</svg>
