<svg width="34" height="34" viewBox="0 0 34 34" fill="none" xmlns="http://www.w3.org/2000/svg">
<path d="M4.95703 29.7497C4.39036 29.7497 3.89453 29.5372 3.46953 29.1122C3.04453 28.6872 2.83203 28.1913 2.83203 27.6247V10.6247C2.83203 10.058 3.04453 9.56217 3.46953 9.13717C3.89453 8.71217 4.39036 8.49967 4.95703 8.49967H11.332V4.95801C11.332 4.39134 11.5445 3.89551 11.9695 3.47051C12.3945 3.04551 12.8904 2.83301 13.457 2.83301H20.5404C21.107 2.83301 21.6029 3.04551 22.0279 3.47051C22.4529 3.89551 22.6654 4.39134 22.6654 4.95801V8.49967H29.0404C29.607 8.49967 30.1029 8.71217 30.5279 9.13717C30.9529 9.56217 31.1654 10.058 31.1654 10.6247V27.6247C31.1654 28.1913 30.9529 28.6872 30.5279 29.1122C30.1029 29.5372 29.607 29.7497 29.0404 29.7497H4.95703ZM4.95703 27.6247H29.0404V10.6247H4.95703V27.6247ZM13.457 8.49967H20.5404V4.95801H13.457V8.49967ZM4.95703 27.6247V10.6247V27.6247Z" fill="#7633FF"/>
</svg>
